<?xml version="1.0" encoding="UTF-8"?>
<svg xmlns="http://www.w3.org/2000/svg" viewBox="0 0 212.62 113">
  <defs>
    <style>
      .cls-1 {
        fill: #4f7f99;
      }

      .cls-2 {
        fill: #b85f71;
      }

      .cls-3 {
        fill: #2f4758;
      }
    </style>
  </defs>
  <g id="Layer_5" data-name="Layer 5">
    <g>
      <polygon class="cls-2" points="24.02 24.04 0 24.04 0 88.92 0 112.96 24.04 112.96 89.06 112.96 64.93 88.92 24.04 88.92 24.02 24.04"/>
      <polygon class="cls-1" points="89.05 24.04 89.04 113 113.08 88.97 113.08 24.04 113.08 0 89.05 0 24.02 0 24.02 24.04 89.05 24.04"/>
      <polygon class="cls-3" points="0 24.04 24.02 24.04 24.02 0 0 24.04"/>
    </g>
  </g>
  <g id="Layer_4" data-name="Layer 4">
    <g>
      <path class="cls-3" d="M131.11,40.05l16.83-24.61v-.14h-15.39v-3.28h20.47v2.38l-16.74,24.52v.14h16.96v3.28h-22.14v-2.29Z"/>
      <path class="cls-3" d="M158.07,12.02h3.92v27.04h12.96v3.28h-16.87V12.02Z"/>
      <path class="cls-3" d="M178.77,37.58c1.75,1.08,4.32,1.98,7.02,1.98,4,0,6.34-2.11,6.34-5.17,0-2.83-1.62-4.45-5.71-6.03-4.95-1.75-8.01-4.32-8.01-8.59,0-4.73,3.92-8.23,9.81-8.23,3.11,0,5.36.72,6.71,1.48l-1.08,3.19c-.99-.54-3.01-1.44-5.76-1.44-4.14,0-5.71,2.48-5.71,4.54,0,2.83,1.84,4.23,6.03,5.85,5.13,1.98,7.74,4.46,7.74,8.91,0,4.68-3.46,8.73-10.62,8.73-2.92,0-6.12-.86-7.74-1.94l.99-3.28Z"/>
    </g>
    <g>
      <path class="cls-3" d="M131.1,61.32l4.86-7.11v-.04h-4.45v-.95h5.92v.69l-4.84,7.08v.04h4.9v.95h-6.4v-.66Z"/>
      <path class="cls-3" d="M139.33,59.05c.03,1.55,1.01,2.18,2.16,2.18.82,0,1.31-.14,1.74-.33l.2.82c-.4.18-1.09.39-2.09.39-1.94,0-3.09-1.27-3.09-3.17s1.12-3.39,2.95-3.39c2.05,0,2.6,1.81,2.6,2.96,0,.23-.03.42-.04.53h-4.42ZM142.68,58.23c.01-.73-.3-1.86-1.59-1.86-1.16,0-1.66,1.07-1.76,1.86h3.34Z"/>
      <path class="cls-3" d="M145.2,57.4c0-.65-.01-1.18-.05-1.7h1.01l.06,1.04h.03c.31-.6,1.04-1.18,2.08-1.18.87,0,2.22.52,2.22,2.68v3.76h-1.14v-3.63c0-1.01-.38-1.86-1.46-1.86-.75,0-1.34.53-1.53,1.17-.05.14-.08.34-.08.53v3.78h-1.14v-4.59Z"/>
      <path class="cls-3" d="M153.74,53.89v1.81h1.64v.87h-1.64v3.39c0,.78.22,1.22.86,1.22.3,0,.52-.04.66-.08l.05.86c-.22.09-.57.16-1.01.16-.53,0-.96-.17-1.23-.48-.33-.34-.44-.9-.44-1.64v-3.43h-.97v-.87h.97v-1.51l1.12-.3Z"/>
      <path class="cls-3" d="M157.23,59.05c.03,1.55,1.01,2.18,2.16,2.18.82,0,1.31-.14,1.74-.33l.2.82c-.4.18-1.09.39-2.09.39-1.94,0-3.09-1.27-3.09-3.17s1.12-3.39,2.95-3.39c2.05,0,2.6,1.81,2.6,2.96,0,.23-.03.42-.04.53h-4.42ZM160.58,58.23c.01-.73-.3-1.86-1.59-1.86-1.16,0-1.66,1.07-1.76,1.86h3.34Z"/>
      <path class="cls-3" d="M163.1,57.66c0-.74-.01-1.38-.05-1.96h1l.04,1.23h.05c.29-.84.97-1.38,1.74-1.38.13,0,.22.01.32.04v1.08c-.12-.03-.23-.04-.39-.04-.81,0-1.38.61-1.53,1.47-.03.16-.05.34-.05.53v3.35h-1.13v-4.33Z"/>
      <path class="cls-3" d="M170.23,61.99v-5.42h-.88v-.87h.88v-.34c0-1.66.97-2.74,2.74-2.74.58,0,1.27.18,1.6.42l-.33.87c-.27-.2-.77-.36-1.33-.36-1.21,0-1.56.84-1.56,1.85v.31h3.65v6.29h-1.13v-5.42h-2.52v5.42h-1.13Z"/>
      <path class="cls-3" d="M176.91,57.66c0-.74-.01-1.38-.05-1.96h1l.04,1.23h.05c.29-.84.97-1.38,1.74-1.38.13,0,.22.01.33.04v1.08c-.12-.03-.23-.04-.39-.04-.81,0-1.38.61-1.53,1.47-.03.16-.05.34-.05.53v3.35h-1.13v-4.33Z"/>
      <path class="cls-3" d="M137.09,67.76v7.61c0,.56.01,1.2.05,1.62h-1.03l-.05-1.09h-.03c-.35.7-1.12,1.23-2.14,1.23-1.52,0-2.69-1.29-2.69-3.2-.01-2.09,1.29-3.38,2.82-3.38.96,0,1.61.46,1.9.96h.03v-3.76h1.14ZM135.95,73.26c0-.14-.01-.34-.05-.48-.17-.73-.79-1.33-1.65-1.33-1.18,0-1.88,1.04-1.88,2.43,0,1.27.62,2.33,1.86,2.33.77,0,1.47-.51,1.68-1.37.04-.16.05-.31.05-.49v-1.09Z"/>
      <path class="cls-3" d="M140.51,68.08c-.3,1.09-.86,2.48-1.22,3.08l-.73.09c.29-.77.62-2.12.77-3.05l1.18-.12Z"/>
      <path class="cls-3" d="M141.8,68.22h1.13v7.81h3.74v.95h-4.88v-8.76Z"/>
      <path class="cls-3" d="M148.35,74.05c.03,1.55,1.01,2.18,2.16,2.18.82,0,1.31-.14,1.74-.33l.2.82c-.4.18-1.09.39-2.09.39-1.94,0-3.09-1.27-3.09-3.17s1.12-3.39,2.95-3.39c2.05,0,2.6,1.81,2.6,2.96,0,.23-.03.42-.04.53h-4.42ZM151.7,73.23c.01-.73-.3-1.86-1.59-1.86-1.16,0-1.66,1.07-1.76,1.86h3.34ZM148.39,68.91c0-.36.3-.66.66-.66s.64.29.64.66c0,.35-.26.66-.64.66s-.66-.31-.66-.66ZM150.81,68.91c0-.36.29-.66.65-.66s.64.29.64.66c0,.35-.26.66-.64.66s-.65-.31-.65-.66Z"/>
      <path class="cls-3" d="M155.6,68.89v1.81h1.64v.87h-1.64v3.39c0,.78.22,1.22.86,1.22.3,0,.52-.04.66-.08l.05.86c-.22.09-.57.16-1.01.16-.53,0-.96-.17-1.23-.48-.33-.34-.44-.9-.44-1.64v-3.43h-.97v-.87h.97v-1.51l1.12-.3Z"/>
      <path class="cls-3" d="M157.81,76.32l2.85-3.71c.27-.34.53-.64.82-.97v-.03h-3.41v-.92h4.8v.71s-2.82,3.65-2.82,3.65c-.26.35-.52.66-.81.99v.03h3.68v.91h-5.11v-.66Z"/>
      <path class="cls-3" d="M164.64,74.05c.03,1.55,1.01,2.18,2.16,2.18.82,0,1.31-.14,1.74-.33l.2.82c-.4.18-1.09.39-2.09.39-1.94,0-3.09-1.27-3.09-3.17s1.12-3.39,2.95-3.39c2.05,0,2.6,1.81,2.6,2.96,0,.23-.03.42-.04.53h-4.42ZM167.99,73.23c.01-.73-.3-1.86-1.59-1.86-1.16,0-1.66,1.07-1.76,1.86h3.34Z"/>
      <path class="cls-3" d="M170.46,76.99c.03-.43.05-1.07.05-1.62v-7.61h1.13v3.95h.03c.4-.7,1.13-1.16,2.14-1.16,1.56,0,2.67,1.3,2.65,3.21,0,2.25-1.42,3.37-2.82,3.37-.91,0-1.64-.35-2.11-1.18h-.04l-.05,1.04h-.99ZM171.64,74.46c0,.14.03.29.05.42.22.79.88,1.34,1.72,1.34,1.2,0,1.91-.98,1.91-2.42,0-1.26-.65-2.34-1.87-2.34-.78,0-1.51.53-1.74,1.4-.03.13-.07.29-.07.47v1.13Z"/>
      <path class="cls-3" d="M183.17,75.27c0,.65.01,1.22.05,1.72h-1.01l-.06-1.03h-.03c-.3.51-.96,1.17-2.08,1.17-.99,0-2.17-.55-2.17-2.76v-3.68h1.14v3.48c0,1.2.36,2,1.4,2,.77,0,1.3-.53,1.51-1.04.07-.17.1-.38.1-.58v-3.86h1.14v4.58Z"/>
      <path class="cls-3" d="M185.71,74.05c.03,1.55,1.01,2.18,2.16,2.18.82,0,1.31-.14,1.74-.33l.2.82c-.4.18-1.09.39-2.09.39-1.94,0-3.09-1.27-3.09-3.17s1.12-3.39,2.95-3.39c2.05,0,2.6,1.81,2.6,2.96,0,.23-.03.42-.04.53h-4.42ZM189.06,73.23c.01-.73-.3-1.86-1.59-1.86-1.16,0-1.66,1.07-1.76,1.86h3.34Z"/>
      <path class="cls-3" d="M191.58,72.66c0-.74-.01-1.38-.05-1.96h1l.04,1.23h.05c.29-.84.97-1.38,1.74-1.38.13,0,.22.01.32.04v1.08c-.12-.03-.23-.04-.39-.04-.81,0-1.38.61-1.53,1.47-.03.16-.05.34-.05.53v3.35h-1.13v-4.33Z"/>
      <path class="cls-3" d="M201.15,70.69c-.03.46-.05.96-.05,1.73v3.65c0,1.44-.29,2.33-.9,2.87-.61.57-1.5.75-2.29.75s-1.59-.18-2.09-.52l.29-.87c.42.26,1.07.49,1.85.49,1.17,0,2.03-.61,2.03-2.2v-.7h-.03c-.35.58-1.03,1.05-2,1.05-1.56,0-2.68-1.33-2.68-3.07,0-2.13,1.39-3.34,2.83-3.34,1.09,0,1.69.57,1.96,1.09h.03l.05-.95h1ZM199.97,73.18c0-.19-.01-.36-.07-.52-.21-.66-.77-1.21-1.6-1.21-1.09,0-1.87.92-1.87,2.38,0,1.24.62,2.26,1.86,2.26.7,0,1.34-.44,1.59-1.17.06-.19.09-.42.09-.61v-1.13Z"/>
      <path class="cls-3" d="M203.63,74.05c.03,1.55,1.01,2.18,2.16,2.18.82,0,1.31-.14,1.74-.33l.2.82c-.4.18-1.09.39-2.09.39-1.94,0-3.09-1.27-3.09-3.17s1.12-3.39,2.95-3.39c2.05,0,2.6,1.81,2.6,2.96,0,.23-.03.42-.04.53h-4.42ZM206.99,73.23c.01-.73-.3-1.86-1.59-1.86-1.16,0-1.66,1.07-1.76,1.86h3.34Z"/>
      <path class="cls-3" d="M209.51,72.66c0-.74-.01-1.38-.05-1.96h1l.04,1.23h.05c.29-.84.97-1.38,1.74-1.38.13,0,.22.01.32.04v1.08c-.12-.03-.23-.04-.39-.04-.81,0-1.38.61-1.53,1.47-.03.16-.05.34-.05.53v3.35h-1.13v-4.33Z"/>
      <path class="cls-3" d="M131.54,90.61c.51.31,1.25.57,2.03.57,1.16,0,1.83-.61,1.83-1.5,0-.82-.47-1.29-1.65-1.74-1.43-.51-2.31-1.25-2.31-2.48,0-1.37,1.13-2.38,2.83-2.38.9,0,1.55.21,1.94.43l-.31.92c-.29-.16-.87-.42-1.66-.42-1.2,0-1.65.72-1.65,1.31,0,.82.53,1.22,1.74,1.69,1.48.57,2.24,1.29,2.24,2.57,0,1.35-1,2.52-3.07,2.52-.84,0-1.77-.25-2.24-.56l.29-.95Z"/>
      <path class="cls-3" d="M138.07,87.75c0-.81-.03-1.46-.05-2.05h1.03l.05,1.08h.03c.47-.77,1.21-1.22,2.24-1.22,1.52,0,2.67,1.29,2.67,3.2,0,2.26-1.38,3.38-2.86,3.38-.83,0-1.56-.36-1.94-.99h-.03v3.42h-1.13v-6.81ZM139.2,89.43c0,.17.03.33.05.47.21.79.9,1.34,1.72,1.34,1.21,0,1.91-.99,1.91-2.43,0-1.26-.66-2.34-1.87-2.34-.78,0-1.51.56-1.73,1.42-.04.14-.08.31-.08.47v1.08Z"/>
      <path class="cls-3" d="M145.46,87.66c0-.74-.01-1.38-.05-1.96h1l.04,1.23h.05c.29-.84.97-1.38,1.74-1.38.13,0,.22.01.33.04v1.08c-.12-.03-.23-.04-.39-.04-.81,0-1.38.61-1.53,1.47-.03.16-.05.34-.05.53v3.35h-1.13v-4.33Z"/>
      <path class="cls-3" d="M155.28,88.79c0,2.33-1.61,3.34-3.13,3.34-1.7,0-3.02-1.25-3.02-3.24,0-2.11,1.38-3.34,3.12-3.34s3.03,1.31,3.03,3.24ZM150.29,88.85c0,1.38.79,2.42,1.91,2.42s1.91-1.03,1.91-2.44c0-1.07-.53-2.42-1.89-2.42s-1.94,1.25-1.94,2.44Z"/>
      <path class="cls-3" d="M162.41,88.79c0,2.33-1.61,3.34-3.13,3.34-1.7,0-3.02-1.25-3.02-3.24,0-2.11,1.38-3.34,3.12-3.34s3.03,1.31,3.03,3.24ZM157.42,88.85c0,1.38.79,2.42,1.91,2.42s1.91-1.03,1.91-2.44c0-1.07-.53-2.42-1.89-2.42s-1.94,1.25-1.94,2.44Z"/>
      <path class="cls-3" d="M168.34,91.75c-.3.16-.96.36-1.81.36-1.9,0-3.13-1.29-3.13-3.21s1.33-3.34,3.38-3.34c.68,0,1.27.17,1.59.32l-.26.88c-.27-.16-.7-.3-1.33-.3-1.44,0-2.22,1.07-2.22,2.38,0,1.46.94,2.35,2.18,2.35.65,0,1.08-.17,1.4-.31l.2.86Z"/>
      <path class="cls-3" d="M169.68,82.76h1.14v3.93h.03c.18-.32.47-.61.82-.81.34-.2.74-.33,1.17-.33.84,0,2.2.52,2.2,2.69v3.74h-1.14v-3.61c0-1.01-.38-1.87-1.46-1.87-.74,0-1.33.52-1.53,1.14-.06.16-.08.32-.08.55v3.8h-1.14v-9.23Z"/>
    </g>
  </g>
</svg>